<?xml version="1.0" standalone="no"?><!DOCTYPE svg PUBLIC "-//W3C//DTD SVG 1.1//EN" "http://www.w3.org/Graphics/SVG/1.1/DTD/svg11.dtd"><svg t="1612128266854" class="icon" viewBox="0 0 1024 1024" version="1.1" xmlns="http://www.w3.org/2000/svg" p-id="3047" xmlns:xlink="http://www.w3.org/1999/xlink" width="200" height="200"><defs><style type="text/css"></style></defs><path d="M511.999659 511.999659m-511.999659 0a511.999659 511.999659 0 1 0 1023.999317 0 511.999659 511.999659 0 1 0-1023.999317 0Z" fill="#007BFF" p-id="3048"></path><path d="M480.187413 1023.999317c-42.461838 0.136533-77.073015-33.109311-77.346082-74.410617l-0.341333-53.247964c-152.098032 32.153579-184.25161-62.668758-184.25161-62.668758-24.780783-61.439959-60.62076-77.687415-60.62076-77.687415-49.561567-32.972778 3.754664-32.358378 3.754664-32.358379 54.886363 3.822931 83.763144 54.74983 83.763145 54.74983 48.742368 81.237279 127.931648 57.753561 159.061227 44.168504 4.983463-34.33811 19.114654-57.753561 34.815977-70.997286-121.514586-13.448524-249.173167-58.982361-249.173168-262.485158 0-58.026628 21.367452-105.335396 56.38823-142.540705-5.734396-13.448524-24.371184-67.379155 5.256529-140.492706 0 0 45.943436-14.267724 150.3231 54.476763a537.531375 537.531375 0 0 1 136.874576-17.817588c46.421302 0.136533 93.183938 6.075729 136.942842 17.749322 104.379664-68.676221 150.186567-54.408497 150.186566-54.408497 29.764247 73.181818 11.059193 127.180715 5.46133 140.492706 35.020777 37.205309 56.183429 84.582344 56.183429 142.540705 0 203.980664-127.931648 248.900101-249.651034 262.007292 19.59252 16.520522 37.068775 48.810634 37.068776 98.440468 0 71.065553-0.273066 100.0106-0.273067 100.0106-0.273066 41.301306-34.815977 74.54715-77.346082 74.478883H480.187413z" fill="#FFFFFF" p-id="3049"></path></svg>