<?xml version="1.0" standalone="no"?><!DOCTYPE svg PUBLIC "-//W3C//DTD SVG 1.1//EN" "http://www.w3.org/Graphics/SVG/1.1/DTD/svg11.dtd"><svg t="1612282954347" class="icon" viewBox="0 0 1024 1024" version="1.1" xmlns="http://www.w3.org/2000/svg" p-id="10649" xmlns:xlink="http://www.w3.org/1999/xlink" width="200" height="200"><defs><style type="text/css"></style></defs><path d="M824 427.52l-4.72 382.8S778.16 920 646.32 912c1.6-17.44-4.8-381.2-4.8-381.2zM384.32 513.28l494.96-277.44 119.68 58.24-481.28 297.04-133.36-77.84z" fill="#E1F9FF" p-id="10650"></path><path d="M960 541.2l0.8-173.2 25.28-17.52a52.8 52.8 0 0 0 29.92-45.36 41.12 41.12 0 0 0-24-41.12L538.08 52.56a50.64 50.64 0 0 0-45.2-2L35.6 253.68A50.8 50.8 0 0 0 32 344.56l456.88 254a50.64 50.64 0 0 0 45.2 2l382.24-214.08v155.04c18.16 0.24 26.72 0.24 43.68-0.32z m-443.84 24L40 299.2l473.52-210.56L980.32 304z" fill="#259FF2" p-id="10651"></path><path d="M820.4 603.28c-14 0-20.4 10.96-20.4 24.96l-1.28 178.48c0 41.36-111.12 106.8-284.88 107.68-169.04-1.28-280-62.8-280-104l-1.04-191.6c0-14-8-25.12-22-25.12s-20.88 11.6-20.88 25.6l0.64 190.24c0 83.84 171.28 149.44 325.04 149.44s326.48-67.44 326.48-151.28V627.76c-0.08-14-7.68-24.48-21.68-24.48zM938 530.4a72 72 0 1 0 72 72 72 72 0 0 0-72-72z m0 108.64a36.48 36.48 0 1 1 36.48-36.48 36.48 36.48 0 0 1-36.48 36.48z" fill="#259FF2" p-id="10652"></path></svg>